<svg xmlns="http://www.w3.org/2000/svg" xmlns:xlink="http://www.w3.org/1999/xlink" width="259.748" height="259.748" viewBox="0 0 259.748 259.748">
  <defs>
    <linearGradient id="linear-gradient" x1="0.757" y1="-0.383" x2="0.322" y2="0.972" gradientUnits="objectBoundingBox">
      <stop offset="0" stop-color="#eee"/>
      <stop offset="0.35" stop-color="#541111"/>
      <stop offset="1" stop-color="#443131"/>
    </linearGradient>
    <filter id="Path_289" x="0" y="0" width="259.748" height="259.748" filterUnits="userSpaceOnUse">
      <feOffset dx="5" dy="5" input="SourceAlpha"/>
      <feGaussianBlur stdDeviation="7.5" result="blur"/>
      <feFlood flood-opacity="0.251"/>
      <feComposite operator="in" in2="blur"/>
      <feComposite in="SourceGraphic"/>
    </filter>
    <clipPath id="clip-path">
      <rect id="Rectangle_852" data-name="Rectangle 852" width="203" height="203" fill="rgba(243,231,218,0.98)" stroke="#000" stroke-width="1"/>
    </clipPath>
  </defs>
  <g id="aparat" transform="translate(-386.5 -1635.5)">
    <g transform="matrix(1, 0, 0, 1, 386.5, 1635.5)" filter="url(#Path_289)">
      <path id="Path_289-2" data-name="Path 289" d="M107.374,0A107.374,107.374,0,1,1,0,107.374,107.374,107.374,0,0,1,107.374,0Z" transform="translate(17.5 17.5)" fill="url(#linear-gradient)"/>
    </g>
    <g id="Component_3_15" data-name="Component 3 – 15" transform="translate(409 1666)">
      <g id="Mask_Group_6" data-name="Mask Group 6" clip-path="url(#clip-path)">
        <g id="camera2" transform="translate(27 37.379)">
          <path id="Path_258" data-name="Path 258" d="M133.65,34.7H114.86a55.991,55.991,0,0,0-61.879,0H15.545A15.546,15.546,0,0,0,0,50.244V112.4a15.549,15.549,0,0,0,15.545,15.545h37.44a56,56,0,0,0,61.883,0h18.79A15.549,15.549,0,0,0,149.2,112.4V50.244A15.558,15.558,0,0,0,133.65,34.7ZM13.987,53.348a4.662,4.662,0,1,0-4.662-4.662A4.662,4.662,0,0,0,13.987,53.348Zm69.936,74.6A46.624,46.624,0,1,0,37.3,81.322a46.624,46.624,0,0,0,46.624,46.624Z" transform="translate(0 -25.373)" fill="rgba(243,231,218,0.98)" fill-rule="evenodd"/>
          <path id="Path_259" data-name="Path 259" d="M25.374,34.7A9.325,9.325,0,0,1,34.7,25.374h9.325a9.325,9.325,0,0,1,0,18.649H34.7A9.325,9.325,0,0,1,25.374,34.7Z" transform="translate(-6.724 -17.374)" fill="rgba(243,231,218,0.98)"/>
        </g>
        <g id="gnome_1_" data-name="gnome (1)" transform="translate(82 59)">
          <path id="Path_39" data-name="Path 39" d="M245.161,26.658a2.1,2.1,0,0,0-2.327.993c-.435.784-2.2,1.87-4.932,2.75V28.221a1.975,1.975,0,0,0,1.1-1.755v-7.41a2.028,2.028,0,0,0-2.069-1.985h-2.822L218.609.652a2.128,2.128,0,0,0-3.066,0L200.037,17.071h-2.822a2.028,2.028,0,0,0-2.069,1.985v7.41a1.975,1.975,0,0,0,1.1,1.755V30.4c-2.732-.88-4.5-1.966-4.932-2.75a2.1,2.1,0,0,0-2.327-.993,2,2,0,0,0-1.568,1.926v7.526c0,6.738,6.952,8.864,10.473,9.653a20.059,20.059,0,0,0,3.419,5.262l-3.486,4.033a1.925,1.925,0,0,0-.416,1.744,2.011,2.011,0,0,0,1.216,1.356l5.647,2.244,1.315,3.357a2.067,2.067,0,0,0,1.937,1.287h4.655l3.751,2.377a2.141,2.141,0,0,0,2.28,0l3.751-2.377h4.655a2.068,2.068,0,0,0,1.937-1.287l1.315-3.357,5.647-2.244a2.009,2.009,0,0,0,1.224-1.387,1.927,1.927,0,0,0-.466-1.762l-3.557-3.859a20.044,20.044,0,0,0,3.533-5.388c3.521-.79,10.473-2.915,10.473-9.653V28.583A2,2,0,0,0,245.161,26.658ZM228.493,49.646a17.209,17.209,0,0,1-22.983-.136,16.086,16.086,0,0,1-4.141-6.119l-.008-.021a15.4,15.4,0,0,1-.973-5.4V28.451h33.377v9.515a15.4,15.4,0,0,1-.973,5.4l-.008.02A16.079,16.079,0,0,1,228.493,49.646ZM199.284,21.041h35.583v3.441H199.284Zm17.792-16.1,11.455,12.13H205.62ZM191.56,36.109V32.8a25.8,25.8,0,0,0,4.689,1.75v3.413a19.329,19.329,0,0,0,.28,3.278C192.227,39.792,191.56,37.867,191.56,36.109Zm35.9,20.956a2.025,2.025,0,0,0-1.145,1.136l-1.126,2.876h-3.844a2.133,2.133,0,0,0-1.14.329l-3.13,1.983-3.13-1.983a2.132,2.132,0,0,0-1.14-.329h-3.844L207.835,58.2a2.025,2.025,0,0,0-1.145-1.136L202.8,55.521l1.518-1.756a21.534,21.534,0,0,0,25.374.1l1.562,1.694Zm15.13-20.956c0,1.758-.667,3.683-4.969,5.134a19.328,19.328,0,0,0,.28-3.278V34.553a25.8,25.8,0,0,0,4.689-1.75Z" transform="translate(-187.423 0)" fill="rgba(243,231,218,0.98)"/>
        </g>
      </g>
    </g>
  </g>
</svg>
