<svg xmlns="http://www.w3.org/2000/svg" xmlns:xlink="http://www.w3.org/1999/xlink" width="259.748" height="259.748" viewBox="0 0 259.748 259.748">
  <defs>
    <linearGradient id="linear-gradient" x1="0.181" y1="-0.554" x2="0.672" y2="1.542" gradientUnits="objectBoundingBox">
      <stop offset="0" stop-color="#eee"/>
      <stop offset="0.317" stop-color="#541111"/>
      <stop offset="1" stop-color="#443131"/>
    </linearGradient>
    <filter id="Path_278" x="0" y="0" width="259.748" height="259.748" filterUnits="userSpaceOnUse">
      <feOffset dx="5" dy="5" input="SourceAlpha"/>
      <feGaussianBlur stdDeviation="7.5" result="blur"/>
      <feFlood flood-opacity="0.251"/>
      <feComposite operator="in" in2="blur"/>
      <feComposite in="SourceGraphic"/>
    </filter>
  </defs>
  <g id="mapa" transform="translate(-519.5 -1262.5)">
    <g id="Mapa-2" data-name="Mapa" transform="translate(618.534 1301.872)">
      <g transform="matrix(1, 0, 0, 1, -99.03, -39.37)" filter="url(#Path_278)">
        <path id="Path_278-2" data-name="Path 278" d="M107.374,0A107.374,107.374,0,1,1,0,107.374,107.374,107.374,0,0,1,107.374,0Z" transform="translate(17.5 17.5)" fill="url(#linear-gradient)"/>
      </g>
      <path id="Union_3" data-name="Union 3" d="M4.465,143.324A6.044,6.044,0,0,1,0,137.553V52.4a4.961,4.961,0,0,1,2.03-3.991,5.211,5.211,0,0,1,4.482-.821l35.515,9.85,7.894-2.173c-.848-1.385-1.684-2.808-2.487-4.252a83.834,83.834,0,0,1-5.815-12.545,36.408,36.408,0,0,1-2.362-11.909,27.215,27.215,0,0,1,2.016-10.343,26.484,26.484,0,0,1,5.5-8.44,25.522,25.522,0,0,1,8.159-5.687,25.023,25.023,0,0,1,20,0,25.528,25.528,0,0,1,8.159,5.687,26.485,26.485,0,0,1,5.5,8.44A27.215,27.215,0,0,1,90.6,26.555c0,4.542-1.349,9.962-4.01,16.107q-1.113,2.57-2.529,5.307l34.24,9.359a6.042,6.042,0,0,1,4.486,5.778v85.157a4.961,4.961,0,0,1-2.022,3.986,5.214,5.214,0,0,1-4.472.833l-36.065-9.86L42.021,153.74ZM45.79,64.71v79.682l30.343-8.353v-74.9a173.787,173.787,0,0,1-11.2,14.737h0c-.1-.12-2.59-2.978-5.972-7.441-1.291-1.7-2.819-3.786-4.436-6.124Zm38.528,71.321L114.6,144.31V64.625L84.318,56.346Zm-76.132.011L37.6,144.2V64.526L8.186,56.368ZM45.521,23.59a1.308,1.308,0,0,0-1.049,1.252v4.893c0,3.151,2.356,5.263,7,6.278a12.99,12.99,0,0,0,2.286,3.422l-2.33,2.623a1.227,1.227,0,0,0-.278,1.134,1.328,1.328,0,0,0,.814.882l3.776,1.459.879,2.183a1.391,1.391,0,0,0,1.3.836H61.03L63.538,50.1a1.464,1.464,0,0,0,1.525,0l2.508-1.546h3.113a1.39,1.39,0,0,0,1.3-.836l.878-2.183,3.776-1.459a1.324,1.324,0,0,0,.819-.9,1.233,1.233,0,0,0-.312-1.146l-2.379-2.509a12.985,12.985,0,0,0,2.363-3.5c4.648-1.015,7-3.127,7-6.278V24.842A1.308,1.308,0,0,0,83.08,23.59a1.451,1.451,0,0,0-.336-.04,1.4,1.4,0,0,0-1.22.685c-.319.558-1.613,1.26-3.3,1.788V24.606a1.28,1.28,0,0,0,.738-1.141V18.646a1.34,1.34,0,0,0-1.383-1.291H75.694L65.326,6.68a1.451,1.451,0,0,0-2.05,0L52.907,17.356H51.02a1.341,1.341,0,0,0-1.383,1.291v4.819a1.282,1.282,0,0,0,.738,1.141v1.417c-1.685-.528-2.979-1.23-3.3-1.788a1.4,1.4,0,0,0-1.22-.685A1.462,1.462,0,0,0,45.521,23.59ZM64.3,47.473l-2.092-1.289a1.451,1.451,0,0,0-.763-.214h-2.57l-.752-1.87a1.339,1.339,0,0,0-.766-.738l-2.6-1,1.015-1.142a14.73,14.73,0,0,0,16.967.063l1.044,1.1-2.539.982a1.344,1.344,0,0,0-.766.738l-.753,1.87h-2.57a1.453,1.453,0,0,0-.762.214L64.3,47.473h0Zm-7.734-9.024A10.458,10.458,0,0,1,53.8,34.471l0-.007,0-.007a9.794,9.794,0,0,1-.651-3.514V24.755H75.46v6.187a9.775,9.775,0,0,1-.651,3.514l-.005.014a10.442,10.442,0,0,1-2.869,4.067,11.749,11.749,0,0,1-15.368-.088ZM78.04,33.072a12.331,12.331,0,0,0,.186-2.13V28.724a17.429,17.429,0,0,0,3.136-1.138v2.149c0,1.112-.394,2.377-3.321,3.338h0Zm-27.479,0c-2.927-.961-3.322-2.227-3.322-3.338V27.586a17.414,17.414,0,0,0,3.136,1.138v2.219a12.243,12.243,0,0,0,.187,2.13v0ZM76.2,22.174H52.4V19.937H76.2v2.237Zm-4.238-4.819H56.641L64.3,9.469l7.659,7.885v0Z" transform="translate(-34.534 2.129)" fill="rgba(243,231,218,0.98)"/>
    </g>
  </g>
</svg>
